<svg width="107" height="41" viewBox="0 0 107 41" fill="none" xmlns="http://www.w3.org/2000/svg">
<g filter="url(#filter0_bi_2049_342)">
<circle cx="20.5" cy="20.5" r="20.5" fill="#E7E7E7" fill-opacity="0.2"/>
</g>
<path d="M31.8513 9.72898C31.6553 9.53498 31.3373 9.53698 31.1443 9.73398L26.7373 14.201C25.0153 12.586 22.4523 11.069 19.1533 13.82C18.7713 14.037 15.5923 15.84 13.8133 16.757C12.6533 17.356 10.8733 18.068 10.8033 18.099C10.3723 18.331 10.1033 18.734 10.0243 19.263C9.76334 21 11.6083 23.972 15.2183 27.632C17.0403 29.479 18.9063 30.415 20.7663 30.415C22.3433 30.415 23.9073 29.709 25.1703 28.428C27.2293 26.34 27.7643 23.149 27.8633 22.406C30.5073 19.155 29.0303 16.621 27.4403 14.909L31.8533 10.436C32.0473 10.24 32.0453 9.92298 31.8493 9.72898H31.8513ZM24.4583 27.726C23.3693 28.831 22.0933 29.415 20.7673 29.415C19.7453 29.415 18.7043 29.065 17.6563 28.373C17.8913 28.219 18.3043 27.941 18.6063 27.706C19.3083 27.158 20.4473 26.048 20.4953 26.001C20.6923 25.808 20.6963 25.491 20.5033 25.293C20.3123 25.097 19.9943 25.093 19.7963 25.285C19.7853 25.296 18.6503 26.403 17.9913 26.916C17.6813 27.158 17.2443 27.447 17.0463 27.577L16.8013 27.732C16.5113 27.49 16.2213 27.222 15.9313 26.928C14.6923 25.673 13.7613 24.603 13.0623 23.697C13.0773 23.691 13.0903 23.686 13.0993 23.683C13.3893 23.569 14.0343 23.307 14.5013 23.074C15.4783 22.586 17.1213 21.52 17.1903 21.475C17.4213 21.324 17.4873 21.015 17.3363 20.783C17.1863 20.551 16.8743 20.486 16.6453 20.636C16.6283 20.647 14.9803 21.717 14.0533 22.179C13.6133 22.399 13.0033 22.645 12.7313 22.753C12.6873 22.77 12.5623 22.817 12.4463 22.859C11.0003 20.774 10.9623 19.752 11.0143 19.41C11.0563 19.128 11.1853 19.029 11.2273 19.002C11.3013 18.972 13.0693 18.265 14.2733 17.644C15.8283 16.842 18.4353 15.374 19.3543 14.854L26.8593 22.377C26.7363 23.187 26.2033 25.957 24.4603 27.723L24.4583 27.726ZM27.3423 21.451L20.1863 14.277C22.3113 12.699 24.1353 12.999 26.3743 15.245C28.6153 17.492 28.9153 19.322 27.3413 21.451H27.3423Z" fill="white"/>
<g filter="url(#filter1_bi_2049_342)">
<circle cx="53.5" cy="20.5" r="20.5" fill="#E7E7E7" fill-opacity="0.2"/>
</g>
<path d="M59.5 8H48.5C46.019 8 44 10.019 44 12.5V27.5C44 29.981 46.019 32 48.5 32H59.5C61.981 32 64 29.981 64 27.5V12.5C64 10.019 61.981 8 59.5 8ZM63 27.5C63 29.43 61.43 31 59.5 31H48.5C46.57 31 45 29.43 45 27.5V12.5C45 10.57 46.57 9 48.5 9H59.5C61.43 9 63 10.57 63 12.5V27.5ZM48 13C47.448 13 47 12.552 47 12C47 11.448 47.448 11 48 11C48.552 11 49 11.448 49 12C49 12.552 48.552 13 48 13ZM51 12C51 11.448 51.448 11 52 11C52.552 11 53 11.448 53 12C53 12.552 52.552 13 52 13C51.448 13 51 12.552 51 12ZM54 16C50.691 16 48 18.691 48 22C48 25.309 50.691 28 54 28C57.309 28 60 25.309 60 22C60 18.691 57.309 16 54 16ZM54 17C56.684 17 58.865 19.131 58.979 21.788C58.666 22.031 57.941 22.5 57 22.5C55.674 22.5 54.291 21.593 54.277 21.584C54.211 21.54 52.632 20.5 51 20.5C50.232 20.5 49.59 20.729 49.105 20.982C49.577 18.712 51.592 17 54 17ZM54 27C51.316 27 49.135 24.869 49.021 22.212C49.334 21.969 50.059 21.5 51 21.5C52.326 21.5 53.709 22.407 53.723 22.416C53.789 22.46 55.368 23.5 57 23.5C57.768 23.5 58.41 23.271 58.895 23.018C58.423 25.288 56.408 27 54 27Z" fill="white"/>
<g filter="url(#filter2_bi_2049_342)">
<circle cx="86.5" cy="20.5" r="20.5" fill="#E7E7E7" fill-opacity="0.2"/>
</g>
<g clip-path="url(#clip0_2049_342)">
<path d="M91.4962 10H83.4962C83.2202 10 82.9962 10.224 82.9962 10.5C82.9962 10.776 83.2202 11 83.4962 11H91.4962C95.0802 11 97.9962 13.916 97.9962 17.5V18H84.9962C80.0472 18 75.8932 21.542 75.1122 26.471C75.0462 26.865 74.8452 28.06 75.6172 28.972C76.1942 29.655 77.1632 30 78.4962 30H94.4962C96.9772 30 98.9962 27.981 98.9962 25.5V17.5C98.9962 13.364 95.6322 10 91.4962 10ZM97.9962 25.5C97.9962 27.43 96.4262 29 94.4962 29H78.4962C77.4712 29 76.7592 28.773 76.3812 28.326C75.9082 27.767 76.0472 26.946 76.1092 26.578C76.8042 22.187 80.5432 19 84.9972 19H97.9972L97.9962 25.5ZM85.9962 24C85.9962 23.448 86.4442 23 86.9962 23C87.5482 23 87.9962 23.448 87.9962 24C87.9962 24.552 87.5482 25 86.9962 25C86.4442 25 85.9962 24.552 85.9962 24ZM89.9962 24C89.9962 23.448 90.4442 23 90.9962 23C91.5482 23 91.9962 23.448 91.9962 24C91.9962 24.552 91.5482 25 90.9962 25C90.4442 25 89.9962 24.552 89.9962 24ZM83.9962 24C83.9962 24.552 83.5482 25 82.9962 25C82.4442 25 81.9962 24.552 81.9962 24C81.9962 23.448 82.4442 23 82.9962 23C83.5482 23 83.9962 23.448 83.9962 24Z" fill="white"/>
</g>
<defs>
<filter id="filter0_bi_2049_342" x="-40" y="-40" width="121" height="121" filterUnits="userSpaceOnUse" color-interpolation-filters="sRGB">
<feFlood flood-opacity="0" result="BackgroundImageFix"/>
<feGaussianBlur in="BackgroundImageFix" stdDeviation="20"/>
<feComposite in2="SourceAlpha" operator="in" result="effect1_backgroundBlur_2049_342"/>
<feBlend mode="normal" in="SourceGraphic" in2="effect1_backgroundBlur_2049_342" result="shape"/>
<feColorMatrix in="SourceAlpha" type="matrix" values="0 0 0 0 0 0 0 0 0 0 0 0 0 0 0 0 0 0 127 0" result="hardAlpha"/>
<feOffset dy="2"/>
<feGaussianBlur stdDeviation="4.45"/>
<feComposite in2="hardAlpha" operator="arithmetic" k2="-1" k3="1"/>
<feColorMatrix type="matrix" values="0 0 0 0 1 0 0 0 0 1 0 0 0 0 1 0 0 0 0.05 0"/>
<feBlend mode="normal" in2="shape" result="effect2_innerShadow_2049_342"/>
</filter>
<filter id="filter1_bi_2049_342" x="-7" y="-40" width="121" height="121" filterUnits="userSpaceOnUse" color-interpolation-filters="sRGB">
<feFlood flood-opacity="0" result="BackgroundImageFix"/>
<feGaussianBlur in="BackgroundImageFix" stdDeviation="20"/>
<feComposite in2="SourceAlpha" operator="in" result="effect1_backgroundBlur_2049_342"/>
<feBlend mode="normal" in="SourceGraphic" in2="effect1_backgroundBlur_2049_342" result="shape"/>
<feColorMatrix in="SourceAlpha" type="matrix" values="0 0 0 0 0 0 0 0 0 0 0 0 0 0 0 0 0 0 127 0" result="hardAlpha"/>
<feOffset dy="2"/>
<feGaussianBlur stdDeviation="4.45"/>
<feComposite in2="hardAlpha" operator="arithmetic" k2="-1" k3="1"/>
<feColorMatrix type="matrix" values="0 0 0 0 1 0 0 0 0 1 0 0 0 0 1 0 0 0 0.05 0"/>
<feBlend mode="normal" in2="shape" result="effect2_innerShadow_2049_342"/>
</filter>
<filter id="filter2_bi_2049_342" x="26" y="-40" width="121" height="121" filterUnits="userSpaceOnUse" color-interpolation-filters="sRGB">
<feFlood flood-opacity="0" result="BackgroundImageFix"/>
<feGaussianBlur in="BackgroundImageFix" stdDeviation="20"/>
<feComposite in2="SourceAlpha" operator="in" result="effect1_backgroundBlur_2049_342"/>
<feBlend mode="normal" in="SourceGraphic" in2="effect1_backgroundBlur_2049_342" result="shape"/>
<feColorMatrix in="SourceAlpha" type="matrix" values="0 0 0 0 0 0 0 0 0 0 0 0 0 0 0 0 0 0 127 0" result="hardAlpha"/>
<feOffset dy="2"/>
<feGaussianBlur stdDeviation="4.45"/>
<feComposite in2="hardAlpha" operator="arithmetic" k2="-1" k3="1"/>
<feColorMatrix type="matrix" values="0 0 0 0 1 0 0 0 0 1 0 0 0 0 1 0 0 0 0.05 0"/>
<feBlend mode="normal" in2="shape" result="effect2_innerShadow_2049_342"/>
</filter>
<clipPath id="clip0_2049_342">
<rect width="24" height="24" fill="white" transform="translate(75 8)"/>
</clipPath>
</defs>
</svg>
